<svg width="640" height="1280" viewBox="0 0 640 1280" fill="none" xmlns="http://www.w3.org/2000/svg">
  <rect width="640" height="1280" rx="54" fill="#F8FAFC"/>
  <rect x="44" y="52" width="552" height="70" rx="26" fill="#EEF2FF"/>
  <circle cx="96" cy="87" r="20" fill="#F97316"/>
  <rect x="130" y="74" width="182" height="24" rx="12" fill="#C7D2FE"/>
  <rect x="44" y="154" width="552" height="248" rx="32" fill="#FFFFFF"/>
  <rect x="74" y="192" width="238" height="22" rx="11" fill="#A5B4FC"/>
  <rect x="74" y="232" width="404" height="18" rx="9" fill="#E2E8F0"/>
  <rect x="74" y="260" width="338" height="18" rx="9" fill="#E2E8F0"/>
  <rect x="74" y="310" width="492" height="56" rx="18" fill="#F1F5FF"/>
  <rect x="44" y="430" width="552" height="390" rx="32" fill="#FFFFFF"/>
  <rect x="74" y="468" width="172" height="24" rx="12" fill="#FB7185"/>
  <rect x="74" y="512" width="492" height="18" rx="9" fill="#E2E8F0"/>
  <rect x="74" y="542" width="492" height="18" rx="9" fill="#E2E8F0"/>
  <rect x="74" y="572" width="420" height="18" rx="9" fill="#E2E8F0"/>
  <circle cx="145" cy="701" r="54" fill="#FDBA74"/>
  <circle cx="320" cy="701" r="54" fill="#F472B6"/>
  <circle cx="495" cy="701" r="54" fill="#93C5FD"/>
  <rect x="44" y="850" width="552" height="350" rx="32" fill="#FFFFFF"/>
  <rect x="74" y="892" width="232" height="24" rx="12" fill="#22D3EE"/>
  <rect x="74" y="936" width="492" height="202" rx="24" fill="#ECFEFF"/>
  <path d="M114 1078C154 1032 194 1020 234 1056C274 1092 314 1110 354 1064C394 1018 434 1006 474 1042" stroke="#0EA5E9" stroke-width="18" stroke-linecap="round"/>
</svg>
