<svg width="640" height="1280" viewBox="0 0 640 1280" fill="none" xmlns="http://www.w3.org/2000/svg">
  <rect width="640" height="1280" rx="54" fill="#EFF6FF"/>
  <rect x="44" y="52" width="552" height="70" rx="26" fill="#DBEAFE"/>
  <circle cx="96" cy="87" r="20" fill="#2563EB"/>
  <rect x="130" y="74" width="244" height="24" rx="12" fill="#BFDBFE"/>
  <rect x="44" y="154" width="552" height="334" rx="32" fill="#FFFFFF"/>
  <rect x="74" y="194" width="286" height="24" rx="12" fill="#2563EB"/>
  <rect x="74" y="238" width="492" height="212" rx="24" fill="#F8FAFC"/>
  <rect x="104" y="270" width="432" height="44" rx="14" fill="#E0E7FF"/>
  <rect x="104" y="330" width="432" height="44" rx="14" fill="#D1FAE5"/>
  <rect x="104" y="390" width="432" height="44" rx="14" fill="#FCE7F3"/>
  <rect x="44" y="516" width="552" height="308" rx="32" fill="#FFFFFF"/>
  <rect x="74" y="554" width="252" height="24" rx="12" fill="#16A34A"/>
  <rect x="74" y="600" width="492" height="180" rx="24" fill="#F0FDF4"/>
  <circle cx="144" cy="690" r="48" fill="#86EFAC"/>
  <circle cx="254" cy="690" r="48" fill="#4ADE80"/>
  <circle cx="364" cy="690" r="48" fill="#22C55E"/>
  <circle cx="474" cy="690" r="48" fill="#16A34A"/>
  <rect x="44" y="852" width="552" height="348" rx="32" fill="#FFFFFF"/>
  <rect x="74" y="894" width="230" height="24" rx="12" fill="#7C3AED"/>
  <rect x="74" y="940" width="492" height="220" rx="24" fill="#F5F3FF"/>
  <path d="M106 1078C154 1042 203 1038 250 1068C298 1098 347 1102 394 1060C442 1018 491 1014 538 1048" stroke="#8B5CF6" stroke-width="16" stroke-linecap="round"/>
</svg>
