<svg width="96" height="96" viewBox="0 0 96 96" fill="none" xmlns="http://www.w3.org/2000/svg">
  <defs>
    <linearGradient id="tribosMascotBody" x1="18" y1="20" x2="80" y2="80" gradientUnits="userSpaceOnUse">
      <stop stop-color="#FB923C"/>
      <stop offset="1" stop-color="#F97316"/>
    </linearGradient>
    <linearGradient id="tribosMascotAccent" x1="34" y1="42" x2="65" y2="74" gradientUnits="userSpaceOnUse">
      <stop stop-color="#6EE7F9"/>
      <stop offset="1" stop-color="#22D3EE"/>
    </linearGradient>
  </defs>
  <circle cx="48" cy="48" r="40" fill="url(#tribosMascotBody)"/>
  <circle cx="48" cy="48" r="40" fill="black" fill-opacity="0.06"/>
  <path d="M30 38C30 31.3726 35.3726 26 42 26H54C60.6274 26 66 31.3726 66 38V58C66 64.6274 60.6274 70 54 70H42C35.3726 70 30 64.6274 30 58V38Z" fill="white"/>
  <circle cx="41" cy="46" r="4" fill="#111827"/>
  <circle cx="55" cy="46" r="4" fill="#111827"/>
  <path d="M38 57C40.8333 60.3333 45.2 62.2 48.5 62.2C51.8 62.2 55.8333 60.3333 58 57" stroke="#111827" stroke-width="3.5" stroke-linecap="round"/>
  <path d="M33 23L42 29" stroke="#FDE68A" stroke-width="4" stroke-linecap="round"/>
  <path d="M63 23L54 29" stroke="#FDE68A" stroke-width="4" stroke-linecap="round"/>
  <circle cx="71" cy="66" r="10" fill="url(#tribosMascotAccent)"/>
  <path d="M66.5 66L70 69.5L75.5 63.5" stroke="#0F172A" stroke-width="3" stroke-linecap="round" stroke-linejoin="round"/>
</svg>
